HIERARCHY
ROOT mixamorig_Hips
{
	OFFSET 0.00 0.00 0.00
	CHANNELS 6 Xposition Yposition Zposition Zrotation Yrotation Xrotation
	JOINT mixamorig_Spine
	{
		OFFSET	0.0125	10.4452	-0.9963
		CHANNELS 3 Zrotation Yrotation Xrotation
		JOINT mixamorig_Spine1
		{
			OFFSET	0.0145	12.1861	-1.1623
			CHANNELS 3 Zrotation Yrotation Xrotation
			JOINT mixamorig_Spine2
			{
				OFFSET	0.0166	13.9270	-1.3284
				CHANNELS 3 Zrotation Yrotation Xrotation
				JOINT mixamorig_Neck
				{
					OFFSET	0.0187	15.6679	-1.4944
					CHANNELS 3 Zrotation Yrotation Xrotation
					JOINT mixamorig_Head
					{
						OFFSET	-0.0000	7.0878	0.8887
						CHANNELS 3 Zrotation Yrotation Xrotation
						End Site
						{
							OFFSET -0.0000 21.3244 2.6737
						}
					}
				}
				JOINT mixamorig_LeftShoulder
				{
					OFFSET	6.2331	12.5732	-1.4620
					CHANNELS 3 Zrotation Yrotation Xrotation
					JOINT mixamorig_LeftArm
					{
						OFFSET	12.4288	-6.1895	0.0647
						CHANNELS 3 Zrotation Yrotation Xrotation
						JOINT mixamorig_LeftForeArm
						{
							OFFSET	12.5822	-17.6989	-0.0651
							CHANNELS 3 Zrotation Yrotation Xrotation
							JOINT mixamorig_LeftHand
							{
								OFFSET	10.9147	-21.0687	11.6035
								CHANNELS 3 Zrotation Yrotation Xrotation
								JOINT mixamorig_LeftHandThumb1
								{
									OFFSET	-1.7358	-3.6666	2.6651
									CHANNELS 3 Zrotation Yrotation Xrotation
									JOINT mixamorig_LeftHandThumb2
									{
										OFFSET	-1.3886	-2.9333	2.1321
										CHANNELS 3 Zrotation Yrotation Xrotation
										JOINT mixamorig_LeftHandThumb3
										{
											OFFSET	-1.7918	-3.3945	1.6896
											CHANNELS 3 Zrotation Yrotation Xrotation
											End Site
											{
												OFFSET -1.1716 -2.6948 1.2270
											}
										}
									}
								}
								JOINT mixamorig_LeftHandIndex1
								{
									OFFSET	1.2042	-11.6606	7.5887
									CHANNELS 3 Zrotation Yrotation Xrotation
									JOINT mixamorig_LeftHandIndex2
									{
										OFFSET	-0.0885	-2.2672	1.0042
										CHANNELS 3 Zrotation Yrotation Xrotation
										JOINT mixamorig_LeftHandIndex3
										{
											OFFSET	-0.3002	-1.9399	0.5096
											CHANNELS 3 Zrotation Yrotation Xrotation
											End Site
											{
												OFFSET -0.2176 -2.6233 0.6157
											}
										}
									}
								}
								JOINT mixamorig_LeftHandMiddle1
								{
									OFFSET	3.0635	-12.2364	5.5160
									CHANNELS 3 Zrotation Yrotation Xrotation
									JOINT mixamorig_LeftHandMiddle2
									{
										OFFSET	0.4236	-2.6124	0.6959
										CHANNELS 3 Zrotation Yrotation Xrotation
										JOINT mixamorig_LeftHandMiddle3
										{
											OFFSET	-0.0346	-2.2988	0.2871
											CHANNELS 3 Zrotation Yrotation Xrotation
											End Site
											{
												OFFSET 0.2796 -2.9102 0.5104
											}
										}
									}
								}
								JOINT mixamorig_LeftHandRing1
								{
									OFFSET	4.3250	-12.3373	2.7720
									CHANNELS 3 Zrotation Yrotation Xrotation
									JOINT mixamorig_LeftHandRing2
									{
										OFFSET	0.0343	-2.6042	-0.1448
										CHANNELS 3 Zrotation Yrotation Xrotation
										JOINT mixamorig_LeftHandRing3
										{
											OFFSET	-0.4080	-2.1150	-0.2682
											CHANNELS 3 Zrotation Yrotation Xrotation
											End Site
											{
												OFFSET -0.1807 -2.8052 -0.0224
											}
										}
									}
								}
								JOINT mixamorig_LeftHandPinky1
								{
									OFFSET	4.5316	-12.9281	-0.0800
									CHANNELS 3 Zrotation Yrotation Xrotation
									JOINT mixamorig_LeftHandPinky2
									{
										OFFSET	-0.2254	-1.6990	-0.6318
										CHANNELS 3 Zrotation Yrotation Xrotation
										JOINT mixamorig_LeftHandPinky3
										{
											OFFSET	-0.4223	-1.3628	-0.4724
											CHANNELS 3 Zrotation Yrotation Xrotation
											End Site
											{
												OFFSET -0.7253 -1.5757 -0.7080
											}
										}
									}
								}
							}
						}
					}
				}
				JOINT mixamorig_RightShoulder
				{
					OFFSET	-6.1994	12.5731	-1.5268
					CHANNELS 3 Zrotation Yrotation Xrotation
					JOINT mixamorig_RightArm
					{
						OFFSET	-12.4361	-6.1894	-0.0647
						CHANNELS 3 Zrotation Yrotation Xrotation
						JOINT mixamorig_RightForeArm
						{
							OFFSET	-12.5822	-17.6989	0.1601
							CHANNELS 3 Zrotation Yrotation Xrotation
							JOINT mixamorig_RightHand
							{
								OFFSET	-10.9147	-21.0687	11.5252
								CHANNELS 3 Zrotation Yrotation Xrotation
								JOINT mixamorig_RightHandThumb1
								{
									OFFSET	1.8326	-3.8313	2.8102
									CHANNELS 3 Zrotation Yrotation Xrotation
									JOINT mixamorig_RightHandThumb2
									{
										OFFSET	1.4660	-3.0650	2.2481
										CHANNELS 3 Zrotation Yrotation Xrotation
										JOINT mixamorig_RightHandThumb3
										{
											OFFSET	1.7022	-3.2799	1.5927
											CHANNELS 3 Zrotation Yrotation Xrotation
											End Site
											{
												OFFSET 0.9222 -2.4964 1.2260
											}
										}
									}
								}
								JOINT mixamorig_RightHandIndex1
								{
									OFFSET	-1.2113	-11.6910	7.5909
									CHANNELS 3 Zrotation Yrotation Xrotation
									JOINT mixamorig_RightHandIndex2
									{
										OFFSET	0.1340	-2.2478	1.0804
										CHANNELS 3 Zrotation Yrotation Xrotation
										JOINT mixamorig_RightHandIndex3
										{
											OFFSET	0.2833	-1.9852	0.4907
											CHANNELS 3 Zrotation Yrotation Xrotation
											End Site
											{
												OFFSET 0.2347 -2.6272 0.4660
											}
										}
									}
								}
								JOINT mixamorig_RightHandMiddle1
								{
									OFFSET	-3.1183	-12.4952	5.5338
									CHANNELS 3 Zrotation Yrotation Xrotation
									JOINT mixamorig_RightHandMiddle2
									{
										OFFSET	-0.3657	-2.5472	0.7803
										CHANNELS 3 Zrotation Yrotation Xrotation
										JOINT mixamorig_RightHandMiddle3
										{
											OFFSET	0.0506	-2.2906	0.2557
											CHANNELS 3 Zrotation Yrotation Xrotation
											End Site
											{
												OFFSET -0.1704 -2.9156 0.4516
											}
										}
									}
								}
								JOINT mixamorig_RightHandRing1
								{
									OFFSET	-4.3615	-12.5986	2.8743
									CHANNELS 3 Zrotation Yrotation Xrotation
									JOINT mixamorig_RightHandRing2
									{
										OFFSET	0.0394	-2.4666	-0.2159
										CHANNELS 3 Zrotation Yrotation Xrotation
										JOINT mixamorig_RightHandRing3
										{
											OFFSET	0.4323	-2.1153	-0.2184
											CHANNELS 3 Zrotation Yrotation Xrotation
											End Site
											{
												OFFSET 0.0751 -2.6586 -0.0626
											}
										}
									}
								}
								JOINT mixamorig_RightHandPinky1
								{
									OFFSET	-4.4132	-11.5032	0.4194
									CHANNELS 3 Zrotation Yrotation Xrotation
									JOINT mixamorig_RightHandPinky2
									{
										OFFSET	-0.1665	-2.1237	-0.7208
										CHANNELS 3 Zrotation Yrotation Xrotation
										JOINT mixamorig_RightHandPinky3
										{
											OFFSET	0.5102	-1.7553	-0.6317
											CHANNELS 3 Zrotation Yrotation Xrotation
											End Site
											{
												OFFSET 0.3407 -2.2265 -0.9448
											}
										}
									}
								}
							}
						}
					}
				}
			}
		}
	}
	JOINT mixamorig_LeftUpLeg
	{
		OFFSET	10.1286	-5.8029	-0.5827
		CHANNELS 3 Zrotation Yrotation Xrotation
		JOINT mixamorig_LeftLeg
		{
			OFFSET	4.2353	-40.9156	0.1368
			CHANNELS 3 Zrotation Yrotation Xrotation
			JOINT mixamorig_LeftFoot
			{
				OFFSET	2.7471	-36.6710	-5.9597
				CHANNELS 3 Zrotation Yrotation Xrotation
				JOINT mixamorig_LeftToeBase
				{
					OFFSET	2.4527	-12.3426	15.4410
					CHANNELS 3 Zrotation Yrotation Xrotation
					End Site
					{
						OFFSET 1.4532 0.2140 7.5769
					}
				}
			}
		}
	}
	JOINT mixamorig_RightUpLeg
	{
		OFFSET	-10.0150	-5.8029	-0.7207
		CHANNELS 3 Zrotation Yrotation Xrotation
		JOINT mixamorig_RightLeg
		{
			OFFSET	-4.2353	-40.9157	0.2580
			CHANNELS 3 Zrotation Yrotation Xrotation
			JOINT mixamorig_RightFoot
			{
				OFFSET	-2.7471	-36.6708	-6.0475
				CHANNELS 3 Zrotation Yrotation Xrotation
				JOINT mixamorig_RightToeBase
				{
					OFFSET	-2.4527	-12.3428	15.3607
					CHANNELS 3 Zrotation Yrotation Xrotation
					End Site
					{
						OFFSET -1.4532 0.2139 7.5074
					}
				}
			}
		}
	}
}
MOTION
Frames: 4
Frame Time: 0.0333333
0.7110 106.1522 2.1090 -3.0692 -0.3940 -23.8527 -3.6622 -1.1123 -0.7407 -6.6888 -2.1720 0.0426 -6.6337 -2.3305 -0.0069 -0.7126 -2.2121 -14.9529 -0.6386 -11.9410 -17.5294 39.3558 -4.2573 -2.4991 -11.0420 -55.6917 -78.0634 16.4483 -20.7018 -47.5171 -112.0170 66.6173 -98.3881 4.4797 -17.6965 -1.4142 11.9054 -9.7537 31.0628 1.9837 -5.4294 14.9659 -25.5185 -2.4543 26.5885 -25.2818 -6.7516 14.2754 -19.6755 -4.1928 10.2805 -36.5444 -3.6101 18.2946 -23.7478 -1.0383 12.8332 -23.0196 -0.2854 13.1148 -28.4784 -5.6135 -0.3133 -22.0882 3.6068 14.9088 -24.0219 2.9279 15.8748 -18.4861 -5.6030 -14.9328 -25.7745 7.9933 15.5551 -10.1165 2.5394 4.8805 -11.2869 2.5055 -0.0967 -2.2670 -8.0920 -29.5498 -23.9319 25.4774 -66.4843 17.9251 -51.6698 -6.6280 -2.4463 13.2104 -8.4515 -2.0888 -12.0596 3.7829 7.1035 -2.0733 0.6762 -30.5974 -16.0265 -8.4578 23.0857 6.7351 12.5021 16.8294 3.2215 8.2444 -22.2838 -8.6312 -18.8221 20.6110 1.5810 11.2260 19.4497 0.0941 13.2464 -30.6316 -12.1279 -39.2366 19.6080 -3.1133 19.2303 24.8875 -3.0480 14.2613 -28.3601 -6.2710 -53.2428 11.5000 -4.1764 17.1044 21.5448 -8.1746 4.8316 9.7329 23.2607 -6.0579 0.0121 11.4533 54.9739 8.6664 -1.2363 5.0836 -0.0000 0.0000 -0.0000 -8.2045 -10.9103 2.6967 -4.1544 -1.0827 38.2062 -2.3883 0.4309 5.8201 -0.0000 -0.0000 0.0000 
0.2288 106.0047 3.0472 -2.9000 0.1718 -23.3223 -3.9648 -1.0534 -0.6947 -6.9156 -2.2604 -0.0901 -6.8666 -2.3996 -0.1489 0.1403 -2.0308 -15.9511 -1.4312 -10.9793 -17.6194 41.4060 -3.8049 -2.5042 -13.5388 -56.0771 -77.3631 16.7211 -20.9464 -48.2846 -111.6602 63.8031 -96.0799 4.4720 -17.9433 -1.6449 14.2515 -8.9397 31.0916 3.0849 -4.9524 14.9045 -23.1808 -2.4767 24.9626 -22.5822 -6.4128 12.1703 -18.3367 -4.0392 9.2756 -34.1717 -3.9423 16.7010 -20.9702 -1.2492 11.1120 -21.6341 -0.4307 12.2743 -26.0498 -5.7185 -1.9423 -19.3615 2.8691 13.4581 -22.6468 2.5881 15.1469 -16.0624 -5.4251 -16.5551 -23.1778 6.8120 14.3071 -8.7507 2.1741 4.1386 -15.7290 2.3136 -0.2983 -2.7245 -6.8275 -40.8367 -18.9512 22.7066 -54.3286 55.9881 -64.9412 -48.0353 -1.2312 11.3112 -9.2877 4.2812 -4.3722 -3.6676 14.4877 2.7835 -6.2264 -27.8525 -14.1287 -6.6721 9.8285 3.5184 0.5378 10.1637 2.1933 2.4804 -19.3467 -7.0060 -16.8203 6.5287 1.2656 0.7550 12.4202 0.6187 8.1639 -27.7632 -10.2309 -37.4782 5.5464 0.0779 9.9640 17.8539 -1.5202 9.7098 -25.3196 -4.4467 -51.4332 -2.2655 1.9202 8.7633 14.5805 -5.5007 1.1768 9.7754 23.1891 -5.2424 0.3982 11.4584 51.5272 8.3255 -1.1988 5.0473 0.0000 -0.0000 0.0000 -6.2423 -10.2817 2.8719 -4.6539 -2.2256 33.4908 -1.9129 0.3623 5.4622 0.0000 0.0000 0.0000 
-0.7971 105.8845 4.5599 -2.6312 -1.0992 -22.4963 -4.1384 -0.6087 -0.7067 -6.7091 -1.5318 -0.5474 -6.6806 -1.6256 -0.6017 0.9237 -1.8533 -17.5804 -2.0328 -10.2008 -17.3504 44.4999 -3.1392 -2.3307 -14.4662 -58.6308 -79.1171 17.2996 -21.4428 -49.8851 -113.5457 61.2973 -101.9019 4.4637 -18.0706 -1.6069 16.2715 -9.4698 33.4056 4.1073 -4.9457 16.1474 -24.2952 -2.4743 25.7378 -17.3143 -5.4605 8.0853 -15.7085 -3.6684 7.3082 -35.3040 -3.7922 17.4625 -15.4846 -1.4194 7.7003 -18.8986 -0.6573 10.6091 -27.2079 -5.6770 -1.1652 -13.9421 1.6220 10.5068 -19.9262 1.9702 13.6902 -17.2171 -5.5185 -15.7828 -18.0036 4.6554 11.7043 -6.0471 1.5066 2.6527 -21.9647 2.0536 -0.5364 -5.9627 -6.0977 -56.4428 -11.8749 15.2165 -32.8353 85.4597 -66.2417 -77.5203 1.0584 7.6616 -9.3499 4.5841 -5.9364 -3.7049 17.1185 2.6278 -8.4485 -33.6135 -18.2339 -10.3535 15.5704 5.2736 5.7024 13.0839 2.7284 5.0017 -25.5020 -10.5573 -20.9604 12.7182 1.7220 5.3523 15.5198 0.4647 10.4086 -33.7811 -14.3385 -41.0936 11.7961 -1.0454 14.1363 20.9636 -2.1237 11.7355 -31.6911 -8.4113 -55.1489 3.8995 -0.5148 12.6126 17.6621 -6.6231 2.8232 10.1129 23.3731 -5.2755 -0.0616 10.5789 47.3200 7.6726 -1.1311 5.7417 -0.0000 0.0000 0.0000 -3.1672 -9.1137 3.1488 -5.4993 -4.3273 25.8487 -0.9043 0.2060 5.2263 -0.0000 0.0000 -0.0000 
-2.7698 105.7790 6.0360 -2.2542 -4.6160 -20.9278 -5.5793 0.7817 -0.5777 -6.5353 0.8511 -1.4829 -6.4988 0.8596 -1.5602 2.7267 -1.8925 -18.6299 -3.1615 -10.5709 -17.5772 49.7318 -4.2886 -3.1282 -11.8242 -61.2797 -85.9781 17.6827 -21.7556 -50.9257 -109.8354 57.8786 -102.6226 4.4698 -18.2650 -1.4289 19.1316 -9.4323 35.0985 5.5107 -4.6822 17.0097 -23.2222 -2.4769 24.9914 -11.8364 -4.0540 3.8833 -12.9432 -3.1786 5.2474 -34.2138 -3.9370 16.7293 -9.6777 -1.2434 4.0887 -15.9969 -0.8101 8.8366 -26.0928 -5.7172 -1.9135 -8.1458 0.6134 7.2706 -17.0310 1.3924 12.1187 -16.1053 -5.4289 -16.5265 -12.4384 2.6391 8.7554 -3.1681 0.8775 1.0478 -28.8997 3.3351 -1.0956 -20.6223 -13.2984 -69.4545 -7.6999 -2.2534 2.5180 109.2640 -56.5623 -104.1367 2.5905 4.3893 -8.8283 3.1972 -9.8722 -5.5242 14.9324 0.4000 -8.4568 -31.1580 -16.4273 -8.8157 15.3987 5.2293 5.5474 12.9974 2.7144 4.9270 -22.8829 -8.9783 -19.2247 12.5351 1.7156 5.2161 15.4285 0.4710 10.3426 -31.2173 -12.5290 -39.5880 11.6129 -1.0058 14.0151 20.8722 -2.1044 11.6762 -28.9801 -6.6583 -53.6039 3.7200 -0.4372 12.5029 17.5716 -6.5887 2.7754 9.7522 23.7511 -6.3317 -0.3016 8.5445 39.6025 6.8714 -1.0485 6.6565 0.0000 -0.0000 -0.0000 1.3288 -6.0517 3.0309 -6.9269 -7.9222 15.3813 0.4209 -1.2976 4.5506 0.0000 -0.0000 0.0000 
